# xmcd
#
# Track frame offsets: 
#        150
#        13290
#        26600
#        37112
#        49917
#        63332
#        77052
#        90185
#        102627
#        115365
#        128047
#        141980
#        153242
#        167322
#        177822
#        188497
#
# Disc length: 2660 seconds
#
# Revision: 3
# Processed by: cddbd v1.5.2PL0 Copyright (c) Steve Scherf et al.
# Submitted via: ExactAudioCopyFreeDBPlugin 1.0
#
DISCID=cc0a6210
DTITLE=Various Artist - Back to the Blues (MusicSpace.com)
DYEAR=2003
DGENRE=Blues
TTITLE0=Elmore James - Dust my Broom
TTITLE1=Bo Diddley - I'm a Man
TTITLE2=Buddy Guy - First Time I Met the Blues
TTITLE3=Muddy Waters - Got my Mojo Workin'
TTITLE4=Lightnin' Hopkins - Katie Mae Blues
TTITLE5=Slim Harpo - I'm a King Bee
TTITLE6=Big Joe Turner - Sweet Sixteen
TTITLE7=Jimmy Reed - Bright Lights, Big City
TTITLE8=Big Mama Thornton - Hound Dog
TTITLE9=Little Walter - (Boom Boom) Out go the Light
TTITLE10=Howlin' Wolf - Smokestack Lightnin'
TTITLE11=Mississippi John Hurt - Candy Man
TTITLE12=Joe Lee Hooker - Boogie Chillen
TTITLE13=Sonny Boy Williamson - Fattening Frogs for Snakes
TTITLE14=Junior Wells - Messin' With the Kid
TTITLE15=T-Bone Walker - Strollin' With Bones
EXTD=
EXTT0=
EXTT1=
EXTT2=
EXTT3=
EXTT4=
EXTT5=
EXTT6=
EXTT7=
EXTT8=
EXTT9=
EXTT10=
EXTT11=
EXTT12=
EXTT13=
EXTT14=
EXTT15=
PLAYORDER=
